<?xml version="1.0" standalone="no"?>
<!DOCTYPE svg PUBLIC "-//W3C//DTD SVG 20010904//EN"
 "http://www.w3.org/TR/2001/REC-SVG-20010904/DTD/svg10.dtd">
<svg version="1.0" xmlns="http://www.w3.org/2000/svg"
 width="187.000000pt" height="187.000000pt" viewBox="0 0 187.000000 187.000000"
 preserveAspectRatio="xMidYMid meet">
<metadata>
Created by potrace 1.11, written by Peter Selinger 2001-2013
</metadata>
<g transform="translate(0.000000,187.000000) scale(0.100000,-0.100000)"
fill="#000000" stroke="none">
<path d="M0 935 l0 -935 935 0 935 0 0 935 0 935 -935 0 -935 0 0 -935z m1235
154 c-5 -7 -1 -9 11 -6 11 4 30 0 44 -8 14 -8 21 -14 16 -15 -5 0 -3 -6 4 -14
6 -8 19 -12 27 -9 10 4 14 2 10 -4 -4 -6 0 -13 8 -17 21 -8 19 -27 -2 -19 -10
3 -30 15 -45 25 -15 11 -43 18 -70 18 -31 0 -39 -3 -28 -10 8 -5 24 -10 36
-10 49 0 143 -102 113 -121 -7 -4 -8 -12 -5 -18 4 -6 0 -11 -8 -11 -19 0 -20
-11 -3 -29 10 -11 7 -12 -14 -7 -17 4 -31 1 -38 -8 -6 -7 -25 -16 -41 -19 -32
-7 -74 -43 -65 -57 3 -4 23 -1 45 7 32 13 43 14 53 4 7 -7 8 -11 2 -10 -5 2
-26 -3 -45 -10 -33 -13 -34 -14 -12 -20 13 -3 23 -10 22 -16 -2 -22 38 -15 58
9 11 14 31 30 45 35 21 8 27 7 31 -7 3 -10 28 -41 56 -70 27 -29 50 -55 50
-57 0 -3 -19 -5 -42 -5 -63 -1 -109 -44 -56 -52 30 -4 35 -34 7 -43 -12 -4
-27 -8 -33 -9 -6 -1 -26 -12 -43 -24 -39 -28 -126 -41 -148 -22 -12 10 -19 10
-27 2 -19 -19 -52 -13 -70 11 -20 29 -28 93 -10 89 7 -1 12 5 12 15 0 9 -3 13
-6 10 -9 -9 -41 34 -49 66 -5 17 -2 33 6 44 11 13 11 17 2 20 -15 5 -17 33 -3
33 6 0 10 4 10 9 0 9 -97 -12 -109 -24 -3 -4 13 -4 37 0 23 3 42 2 42 -3 0
-11 -49 -85 -61 -92 -5 -3 -15 -23 -22 -45 -15 -42 -37 -59 -37 -28 -1 17 -1
17 -11 0 -10 -18 -11 -18 -24 0 -7 10 -11 22 -7 27 3 5 -2 7 -12 3 -12 -5 -19
0 -26 18 -5 14 -16 25 -25 25 -21 0 -19 -17 3 -23 13 -4 12 -5 -4 -6 -12 0
-25 -8 -28 -17 -8 -22 5 -125 15 -118 11 6 11 1 3 -20 -3 -9 -12 -16 -19 -16
-16 0 -41 -29 -50 -60 -7 -23 -6 -22 19 8 26 30 66 44 66 22 0 -5 9 -10 20
-10 12 0 33 -8 47 -17 19 -13 28 -14 31 -5 3 9 8 9 23 -2 25 -17 62 -9 55 11
-8 20 12 6 24 -17 8 -15 4 -23 -20 -40 -28 -20 -47 -27 -76 -29 -7 -1 -14 -14
-16 -30 -3 -22 0 -31 14 -34 17 -5 27 -37 11 -37 -24 1 -58 32 -67 61 -10 29
-17 34 -62 44 -61 14 -114 61 -114 103 l-1 27 -14 -30 -15 -30 6 35 c9 50 10
223 2 199 -10 -27 -15 -24 -13 9 4 58 4 59 15 42 8 -12 10 -11 10 8 0 30 -14
28 -40 -5 l-21 -28 17 35 c9 19 25 47 35 61 10 14 15 30 11 34 -4 5 -2 5 4 2
16 -9 46 56 37 79 -4 12 -3 15 5 10 11 -7 17 11 13 42 -1 6 3 12 9 12 5 0 10
8 10 18 0 15 2 15 11 2 8 -12 9 -12 7 5 -4 33 29 70 85 95 28 12 65 29 80 37
38 20 102 29 225 32 77 1 102 -1 97 -10z m245 -274 c0 -25 -2 -45 -6 -45 -9 0
-35 71 -29 80 4 6 13 10 21 10 10 0 14 -12 14 -45z m-693 -247 c-3 -8 -6 -5
-6 6 -1 11 2 17 5 13 3 -3 4 -12 1 -19z m30 -20 c-3 -7 -5 -2 -5 12 0 14 2 19
5 13 2 -7 2 -19 0 -25z m-230 -10 c-3 -7 -5 -2 -5 12 0 14 2 19 5 13 2 -7 2
-19 0 -25z m33 -78 c14 0 13 -27 -1 -36 -16 -9 -26 6 -33 51 l-6 40 15 -27 c9
-16 20 -28 25 -28z m790 14 c0 -13 -27 -31 -58 -37 -37 -8 -42 5 -10 27 22 15
68 22 68 10z m-6 -87 c16 -12 16 -13 -6 -14 -41 -2 -89 8 -83 18 9 13 68 11
89 -4z m-934 -57 c-6 -11 -13 -20 -15 -20 -2 0 -3 9 -2 20 1 11 7 20 14 20 11
0 11 -5 3 -20z"/>
<path d="M1240 1070 c-11 -7 -6 -10 20 -10 26 0 31 3 20 10 -8 5 -17 10 -20
10 -3 0 -12 -5 -20 -10z"/>
<path d="M1111 981 c-13 -23 -14 -31 -3 -31 13 0 32 39 22 45 -5 3 -14 -3 -19
-14z"/>
<path d="M1095 910 c-3 -5 -16 -10 -28 -10 -13 0 -32 -7 -44 -15 -20 -14 -22
-13 -26 2 -4 16 -5 16 -12 -1 -6 -13 -4 -21 3 -24 7 -2 12 -12 12 -23 0 -24
26 -15 33 12 3 11 17 22 35 25 18 4 32 14 35 25 6 21 2 25 -8 9z"/>
<path d="M691 651 c-13 -24 -5 -44 8 -22 6 9 11 10 15 2 10 -16 23 -14 30 5 4
10 1 14 -6 11 -7 -2 -18 3 -24 11 -10 14 -13 13 -23 -7z"/>
<path d="M711 588 c-13 -21 -14 -21 -27 -3 -15 21 -19 19 -28 -12 -5 -15 -1
-28 13 -42 12 -12 19 -21 16 -21 -3 0 3 -9 12 -20 10 -11 21 -20 26 -20 13 0
4 54 -12 66 -9 7 -12 18 -7 30 6 16 9 16 16 4 7 -11 10 -8 10 13 0 33 -1 33
-19 5z"/>
</g>
</svg>
